<svg xmlns="http://www.w3.org/2000/svg" width="25" height="25" fill="none" viewBox="0 0 25 25">
    <path fill="#00D222" d="M3.662 25h8.154v-8.887h-2.93v-2.93h2.93V9.522c0-2.019 1.643-3.662 3.662-3.662h3.663v2.93h-2.93c-.808 0-1.465.657-1.465 1.465v2.93h4.262l-.488 2.93h-3.774V25h6.592C23.358 25 25 23.357 25 21.338V3.662C25 1.642 23.357 0 21.338 0H3.662C1.642 0 0 1.643 0 3.662v17.676C0 23.358 1.643 25 3.662 25zM1.465 3.662c0-1.211.986-2.197 2.197-2.197h17.676c1.211 0 2.197.986 2.197 2.197v17.676c0 1.211-.986 2.197-2.197 2.197H16.21v-5.957h3.55l.977-5.86H16.21v-1.464h4.395v-5.86h-5.128c-2.827 0-5.126 2.3-5.126 5.127v2.198h-2.93v5.86h2.93v5.956h-6.69c-1.211 0-2.197-.986-2.197-2.197V3.662z"/>
</svg>
