<svg xmlns="http://www.w3.org/2000/svg" width="145" height="139" fill="none" viewBox="0 0 145 139">
    <ellipse cx="72.5" cy="69.198" fill="#EFF310" fill-opacity=".7" rx="72.5" ry="69.189"/>
    <path fill="#000" d="M50.993 47.89C50.993 42.908 54.33 35 63.28 35c3.677 0 6.77 1.695 9.221 5.046C74.95 36.696 78.044 35 81.721 35c8.95 0 12.286 7.907 12.286 12.89 0 8.593-6.859 13.968-16.229 21.802-1.377 1.152-2.8 2.342-4.318 3.63-.275.233-.618.35-.96.35-.342 0-.684-.117-.96-.35-1.518-1.288-2.942-2.478-4.318-3.63-9.81-8.201-16.229-13.39-16.229-21.801zM72.5 70.347c1.17-.988 2.287-1.922 3.374-2.83 9.803-8.197 15.203-12.712 15.203-19.625 0-4.69-3.138-10.026-9.356-10.026-3.245 0-5.84 1.822-7.936 5.57-.257.459-.75.744-1.285.744-.536 0-1.028-.285-1.285-.745-2.095-3.747-4.691-5.57-7.936-5.57-6.132 0-9.356 5.258-9.356 10.027 0 6.913 5.4 11.428 15.203 19.624 1.087.91 2.203 1.843 3.374 2.83zM99.474 91.162l-7.052 3.447v7.709c0 .791-.656 1.432-1.465 1.432H75.43c-.81 0-1.465-.641-1.465-1.432V83.619c0-4.388 3.367-8.027 7.82-8.464l.12-.012c2.577-.253 7.142-1.977 8.944-3.739l3.29-3.215c1.107-1.082 2.578-1.679 4.142-1.679V55.052c0-3.159 2.629-5.73 5.86-5.73 3.23 0 5.859 2.571 5.859 5.73v19.456c0 7.05-4.072 13.498-10.526 16.654zm7.596-36.11c0-1.58-1.314-2.864-2.929-2.864-1.616 0-2.93 1.285-2.93 2.864v12.226c1.786 1.01 2.93 2.893 2.93 4.962 0 1.53-.61 2.968-1.717 4.05l-7.502 7.336c-.571.56-1.499.56-2.071 0-.572-.559-.572-1.466 0-2.025l7.501-7.336c.554-.542.859-1.26.859-2.025 0-1.213-.785-2.298-1.953-2.702h-.002c-1.01-.351-2.209-.142-3.046.677l-3.29 3.215C89.524 76.751 82.103 78 82.09 78.005c-2.962.29-5.194 2.704-5.194 5.614v17.266h12.597v-7.161c0-.543.314-1.039.81-1.281l7.862-3.843c5.493-2.686 8.906-8.086 8.906-14.092V55.052zM42.764 89.14c-.81 0-1.465-.64-1.465-1.432 0-.79.656-1.432 1.465-1.432s1.464.641 1.464 1.432c0 .791-.655 1.433-1.464 1.433z"/>
    <path fill="#000" d="M40.86 49.323c3.23 0 5.859 2.57 5.859 5.73V66.51c1.564 0 3.035.596 4.142 1.679l3.29 3.215c1.802 1.762 6.367 3.486 8.956 3.74l.097.01c4.464.438 7.831 4.077 7.831 8.465v18.699c0 .791-.656 1.432-1.465 1.432H54.043c-.809 0-1.465-.641-1.465-1.432v-7.709l-4.794-2.343c-.724-.354-1.017-1.214-.655-1.922.361-.707 1.241-.994 1.965-.64l5.604 2.739c.496.242.81.738.81 1.28v7.162h12.598V83.619c0-2.91-2.233-5.324-5.206-5.616l-.097-.01c-3.177-.311-8.438-2.329-10.723-4.563l-3.29-3.215c-.84-.822-2.04-1.026-3.046-.677h-.001c-1.17.404-1.954 1.49-1.954 2.702 0 .764.305 1.483.859 2.025l7.501 7.336c.572.56.572 1.466 0 2.026-.572.559-1.5.559-2.072 0l-7.501-7.337c-1.107-1.082-1.717-2.52-1.717-4.05 0-2.069 1.143-3.952 2.93-4.962V55.052c0-1.58-1.314-2.864-2.93-2.864-1.615 0-2.93 1.285-2.93 2.864v19.456c0 2.62.677 5.223 1.957 7.524.386.695.123 1.565-.588 1.942-.71.378-1.6.121-1.986-.574C35.799 80.68 35 77.605 35 74.508V55.052c0-3.159 2.629-5.73 5.86-5.73z"/>
</svg>
