<svg xmlns="http://www.w3.org/2000/svg" width="70" height="70" fill="none" viewBox="0 0 70 70">
    <path fill="#000" d="M68.633 12.635H48.228c-5.563 0-10.354 3.745-11.651 9.106l-.002.008-.208.881v-7.016c3.078-.658 5.392-3.379 5.392-6.625 0-3.738-3.066-6.778-6.833-6.778-3.768 0-6.833 3.04-6.833 6.778 0 3.299 2.388 6.054 5.54 6.656v6.985l-.208-.88-.002-.009c-1.297-5.361-6.088-9.106-11.651-9.106H1.367c-.755 0-1.367.612-1.367 1.367v1.116c0 2.687 1.524 5.028 3.761 6.216v.578c0 2.687 1.525 5.028 3.76 6.216v.578c0 3.886 3.188 7.046 7.105 7.046h19.007v4.313h-7.037c-2.732 0-4.954 2.225-4.954 4.96s2.222 4.96 4.954 4.96h7.037v4.387h-6.776c-2.403 0-4.357 1.957-4.357 4.363 0 2.406 1.954 4.363 4.357 4.363h6.776v3.324c0 .755.612 1.367 1.367 1.367s1.367-.612 1.367-1.367v-3.324H47.14c.755 0 1.367-.612 1.367-1.367s-.612-1.367-1.367-1.367H36.367v-3.258h7.217c2.714 0 4.922-2.21 4.922-4.928 0-2.717-2.208-4.928-4.922-4.928h-7.217V42.8h7.255c2.693 0 4.884-2.195 4.884-4.891 0-.779-.178-1.51-.498-2.157h7.366c3.917 0 7.104-3.16 7.104-7.045v-.579c2.236-1.188 3.761-3.529 3.761-6.216v-.578C68.476 20.146 70 17.805 70 15.118v-1.116c0-.755-.612-1.367-1.367-1.367zM30.827 8.989c0-2.23 1.839-4.043 4.099-4.043 2.26 0 4.098 1.813 4.098 4.043 0 2.229-1.838 4.043-4.098 4.043s-4.099-1.814-4.099-4.043zM14.626 33.018c-2.324 0-4.23-1.8-4.362-4.06h9.553c.755 0 1.367-.612 1.367-1.367s-.612-1.367-1.367-1.367h-8.952c-2.324 0-4.23-1.8-4.362-4.06h.488l.074.002h12.624c.755 0 1.367-.612 1.367-1.367 0-.756-.612-1.368-1.367-1.368H7.178l-.074-.002c-2.324 0-4.23-1.799-4.362-4.06h19.03c4.295 0 7.992 2.883 8.993 7.011l2.508 10.638H14.625zm19.007 27.346h-6.776c-.895 0-1.623-.731-1.623-1.63 0-.897.728-1.628 1.623-1.628h6.776v3.258zm9.951-10.38c1.206 0 2.188.985 2.188 2.194 0 1.21-.982 2.194-2.188 2.194h-7.217v-4.387h7.217zm-9.951-2.734h-7.037c-1.224 0-2.22-.998-2.22-2.225s.996-2.226 2.22-2.226h7.037v4.451zm12.139-9.341c0 1.189-.965 2.156-2.15 2.156h-7.255v-4.313h7.106c1.31 0 2.299.927 2.299 2.157zm17.124-18.48c-.024 0-.05 0-.074.002h-6.558c-.755 0-1.367.612-1.367 1.367 0 .756.613 1.368 1.367 1.368h7.233c-.133 2.26-2.038 4.058-4.361 4.058h-8.953c-.755 0-1.367.612-1.367 1.367s.612 1.367 1.367 1.367h9.553c-.132 2.26-2.037 4.06-4.361 4.06H36.727l2.509-10.638c1-4.128 4.697-7.01 8.992-7.01h19.03c-.132 2.26-2.038 4.06-4.362 4.06z"/>
    <path fill="#000" d="M49.3 21.935c.483.322 1.129.299 1.59-.052.448-.34.64-.945.477-1.482-.166-.543-.667-.938-1.235-.968-.573-.03-1.115.313-1.336.842-.245.592-.035 1.308.503 1.66z"/>
</svg>
