<svg xmlns="http://www.w3.org/2000/svg" width="27" height="27" fill="none" viewBox="0 0 27 27">
    <path fill="#00D222" d="M18.563 0H8.438C3.777 0 0 3.778 0 8.438v10.124C0 23.223 3.778 27 8.438 27h10.124C23.223 27 27 23.222 27 18.562V8.438C27 3.779 23.222 0 18.562 0zm5.906 18.563c0 3.256-2.65 5.906-5.907 5.906H8.438c-3.256 0-5.906-2.65-5.906-5.907V8.438c0-3.256 2.65-5.906 5.906-5.906h10.126c3.256 0 5.906 2.65 5.906 5.906v10.126z"/>
    <path fill="#00D222" d="M13.5 6.75c-3.728 0-6.75 3.022-6.75 6.75s3.022 6.75 6.75 6.75 6.75-3.022 6.75-6.75-3.022-6.75-6.75-6.75zm0 10.969c-2.325 0-4.219-1.894-4.219-4.219 0-2.327 1.894-4.219 4.219-4.219s4.219 1.892 4.219 4.219c0 2.325-1.894 4.219-4.219 4.219zM20.756 7.143c.497 0 .9-.403.9-.9 0-.496-.403-.899-.9-.899s-.9.403-.9.9c0 .496.403.9.9.9z"/>
</svg>
