<svg xmlns="http://www.w3.org/2000/svg" width="30" height="30" fill="none" viewBox="0 0 30 30">
    <g fill="#000" clip-path="url(#prefix__clip0)">
        <path d="M19 0c-.276 0-.5.224-.5.5s.224.5.5.5c5.514 0 10 4.486 10 10 0 .276.224.5.5.5s.5-.224.5-.5c0-6.065-4.935-11-11-11z"/>
        <path d="M19 3c-.276 0-.5.224-.5.5s.224.5.5.5c3.86 0 7 3.14 7 7 0 .276.224.5.5.5s.5-.224.5-.5c0-4.411-3.59-8-8-8z"/>
        <path d="M19 6c-.276 0-.5.224-.5.5s.224.5.5.5c2.205 0 4 1.794 4 4 0 .276.224.5.5.5s.5-.224.5-.5c0-2.757-2.244-5-5-5zM27.056 18.762c-1.36-.178-2.702-.512-3.987-.991-1.244-.466-2.658-.166-3.605.769l-1.58 1.577c-3.315-1.954-6.083-4.717-8.042-8.025l1.582-1.578c.935-.943 1.237-2.355.77-3.597-.48-1.283-.815-2.621-.995-3.984C10.96 1.244 9.497-.007 7.788 0H3.413c-.102 0-.204.005-.305.014C2.2.096 1.378.527.793 1.226c-.585.7-.862 1.584-.779 2.5.485 4.554 2.06 8.992 4.552 12.832 2.263 3.554 5.342 6.627 8.9 8.883 3.833 2.48 8.259 4.052 12.81 4.546.103.009.207.013.31.013h.01c1.884-.008 3.41-1.544 3.403-3.422v-4.36c.04-1.729-1.223-3.213-2.943-3.456zM29 22.2v4.38c.005 1.329-1.075 2.415-2.406 2.42-.078-.003-.153-.003-.22-.009-4.386-.476-8.662-1.994-12.369-4.392-3.438-2.181-6.41-5.147-8.597-8.582-2.41-3.712-3.93-7.999-4.398-12.39-.058-.64.138-1.265.551-1.76.414-.494.995-.799 1.638-.857.072-.006.143-.01.215-.01h4.403c1.198 0 2.225.888 2.392 2.069.19 1.432.542 2.845 1.049 4.2.33.877.117 1.876-.542 2.54l-1.852 1.848c-.16.16-.193.405-.081.601 2.119 3.72 5.21 6.805 8.936 8.919.196.111.44.078.6-.081l1.85-1.846c.668-.66 1.67-.872 2.55-.542 1.357.505 2.772.858 4.203 1.046 1.215.17 2.108 1.222 2.078 2.446z"/>
        <path d="M7.5 2H3.414c-.042 0-.084.002-.125.006-.51.046-.821.335-.961.503-.113.134-.37.501-.325 1.005.19 1.774.531 3.499 1.018 5.13.065.216.263.356.479.356.047 0 .095-.006.143-.02.265-.08.415-.358.336-.623-.469-1.57-.799-3.236-.98-4.94-.012-.127.07-.237.096-.268.041-.049.133-.133.319-.149h4.085c.277 0 .5-.223.5-.5C8 2.226 7.777 2 7.5 2zM27.5 22c-.276 0-.5.224-.5.5l-.001 4.08c0 .112-.043.218-.121.297-.079.079-.183.122-.282.123l-.046-.001c-1.708-.186-3.359-.515-4.907-.978-.263-.08-.543.07-.622.335-.08.265.071.543.335.623 1.606.48 3.317.822 5.095 1.015.041.004.125.006.137.006.379-.002.733-.15 1-.419s.413-.626.411-1.004V22.5c0-.276-.223-.5-.5-.5z"/>
    </g>
    <defs>
        <clipPath id="prefix__clip0">
            <rect width="30" height="30" fill="#fff" rx="5"/>
        </clipPath>
    </defs>
</svg>
