<svg xmlns="http://www.w3.org/2000/svg" width="80" height="80" fill="none" viewBox="0 0 80 80">
    <path fill="#000" d="M7.5 20.378v16.058c0 1.012.224 2.01.657 2.925.433.914 1.063 1.72 1.845 2.362.782.641 1.697 1.1 2.678 1.346.981.245 2.005.269 2.997.07l8.231-1.646 1.08 9.723-1.22 7.329c-.012.067-.018.136-.018.205V75c0 .663.265 1.298.733 1.767.469.469 1.104.732 1.767.733h7.5c.332 0 .65-.132.884-.366.234-.234.366-.552.366-.884v-2.5c0-.164-.032-.327-.095-.478-.063-.152-.155-.29-.271-.406L32.5 70.732V58.655l1.145-6.683c.07-.41.105-.825.105-1.24V39.621c.727-.294 1.43-.646 2.1-1.052h.002c1.47-.89 2.77-2.033 3.843-3.375l2.313-2.89c1.22-.485 2.272-1.317 3.025-2.393.754-1.075 1.176-2.348 1.214-3.661H67.5c.164 0 .327-.032.478-.095.152-.063.29-.155.406-.271l.884-.884h1.982c.332 0 .65-.132.884-.366.234-.235.366-.552.366-.884V20c0-.331-.132-.65-.366-.884-.234-.234-.552-.366-.884-.366H42.984l.494-1.48c.01-.028.015-.056.023-.085.811-.325 1.506-.886 1.996-1.61.49-.723.752-1.576.753-2.45v-2.5c-.001-1.052-.381-2.068-1.07-2.863-.689-.795-1.64-1.316-2.682-1.467l.002-.045c0-.691-.19-1.369-.551-1.958-.36-.59-.877-1.068-1.493-1.382-.615-.314-1.305-.453-1.994-.4-.69.053-1.35.296-1.91.7-.56.406-.997.958-1.263 1.595-.266.638-.35 1.337-.245 2.02.107.683.4 1.323.846 1.85.447.527 1.03.92 1.687 1.136-.05.268-.077.54-.077.814v2.5c0 .403.056.804.166 1.191l-.504.504-3.017-1.006c-.127-.042-.26-.064-.395-.064h-8.68l-11.182-1.242c-.24-.027-.482.017-.697.125l-2.362 1.18-1.298-1.04c-.24-.191-.543-.288-.85-.271-.307.017-.597.147-.815.364L6.453 14.28c-.51.512-.826 1.184-.898 1.902-.07.719.108 1.44.508 2.041L7.5 20.378zM32.5 75h-6.25v-2.5h4.482l1.768 1.768V75zm-.395-37.436c-.25.083-.466.242-.619.455-.153.213-.236.469-.236.731v11.982c0 .274-.023.547-.07.818l-1.162 6.788c-.012.07-.018.14-.018.211V70h-3.75V58.853l1.233-7.398c.019-.113.022-.229.01-.343l-1.25-11.25c-.02-.172-.074-.339-.161-.489-.087-.15-.204-.28-.344-.382-.14-.103-.3-.175-.469-.212-.17-.037-.344-.039-.514-.005l-9.569 1.913c-.629.126-1.278.111-1.9-.044-.622-.156-1.203-.447-1.699-.854s-.896-.918-1.17-1.498c-.274-.58-.417-1.213-.417-1.855V23.75h2.725l.597 2.985c.27 1.346.293 2.73.066 4.083l-.87 5.227c-.036.208-.017.421.053.62.07.2.19.377.347.518.157.14.348.239.553.286.206.047.42.04.623-.017l8.75-2.5c.204-.058.39-.168.54-.318l1.418-1.418c.622-.625 1.361-1.12 2.176-1.458.814-.338 1.687-.51 2.569-.508h.948l2.412 4.576.614 1.164c-.46.221-.933.413-1.416.574zM16.033 19.047l8.664 2.166c.099.025.2.037.303.037h7.5v4.622l-1.919 2.878h-1.034c-1.21-.003-2.409.233-3.527.697-1.118.463-2.133 1.143-2.986 2l-1.19 1.19-6.536 1.868.546-3.276c.277-1.653.25-3.342-.08-4.985l-.733-3.664.87-2.609c.098-.297.14-.61.122-.924zM48.75 21.25H70v1.25h-1.25c-.164 0-.327.032-.478.095-.152.063-.29.155-.406.271l-.884.884H48.75v-2.5zm-5-8.125c0 .407-.132.803-.376 1.128-.245.325-.589.562-.98.674-.39.113-.808.095-1.188-.051-.38-.146-.702-.411-.917-.756l2.024-1.62h1.437v.625zm-2.94 4.243l-.41 1.23c-.407-.148-.768-.398-1.049-.727-.28-.329-.471-.725-.554-1.15l.257-.256c.508.431 1.11.74 1.756.903zm1.065-8.618c.387 0 .765.121 1.081.345.316.224.555.54.685.905h-1.766c-.284 0-.56.097-.781.274L40 11.149v-.524c0-.497.198-.974.55-1.325.351-.352.828-.55 1.325-.55zM37.5 6.25c-.001-.185.039-.368.117-.536.078-.168.193-.316.335-.434.143-.119.31-.204.49-.25.179-.045.366-.05.548-.015.182.036.353.111.502.221.15.11.272.252.36.415.087.163.137.344.147.529.009.185-.023.37-.094.54-.398.202-.763.463-1.082.775-.025.001-.048.005-.073.005-.331 0-.65-.132-.883-.366-.235-.235-.367-.553-.367-.884zm-6.25 10h2.297l2.79.93c.217 1.143.827 2.174 1.722 2.917.896.743 2.022 1.15 3.186 1.153H46.25v2.5H45c-.331 0-.65.132-.884.366-.234.235-.366.553-.366.884v1.047c0 .889-.279 1.755-.798 2.476-.52.722-1.254 1.26-2.097 1.54-.229.077-.43.218-.581.406l-2.531 3.163c-.61.764-1.312 1.452-2.088 2.047l-1.21-2.296-1.742-3.308 2.088-3.131c.137-.206.21-.447.209-.694V20c0-.331-.132-.65-.366-.884-.234-.234-.552-.366-.884-.366h-2.5v-2.5zm-17.271-1.217l10.883 1.21c.046.005.092.007.138.007h3.75v2.5h-3.596l-9.85-2.463c-.188-.046-.382-.049-.57-.008-.188.041-.364.126-.514.246l-1.24-.992.999-.5zM8.22 16.047l.622-.622 4.696 3.756-.69 2.069H10V20c0-.247-.073-.488-.21-.693l-1.647-2.471c-.08-.12-.116-.265-.102-.409.015-.143.078-.278.18-.38z"/>
    <path fill="#000" d="M39.563 26.458c-.863 0-1.563-.7-1.563-1.562 0-.863.7-1.563 1.563-1.563.862 0 1.562.7 1.562 1.563s-.7 1.562-1.563 1.562z"/>
</svg>
