<svg xmlns="http://www.w3.org/2000/svg" width="34" height="22" fill="none" viewBox="0 0 34 22">
    <path fill="#D27E00" d="M17.205 21.625c4.92 0 3.165-3.114 3.545-4.01-.006-.668-.011-1.311.011-1.702.312.088 1.047.46 2.566 1.937 2.344 2.365 2.944 3.775 4.838 3.775h3.486c1.105 0 1.68-.458 1.968-.841.278-.372.55-1.023.252-2.038-.778-2.442-5.314-6.66-5.596-7.104.043-.082.11-.191.146-.248h-.003c.896-1.183 4.313-6.303 4.816-8.351l.002-.012c.272-.935.023-1.541-.235-1.884-.388-.513-1.006-.772-1.84-.772h-3.486c-1.168 0-2.053.588-2.5 1.66-.75 1.906-2.855 5.824-4.434 7.211-.048-1.965-.015-3.465.01-4.58.051-2.175.216-4.291-2.041-4.291h-5.48c-1.414 0-2.767 1.544-1.302 3.377 1.281 1.607.46 2.502.737 6.959-1.077-1.155-2.992-4.273-4.346-8.258C7.939 1.375 7.364.376 5.745.376H2.258C.844.376 0 1.147 0 2.438c0 2.898 6.416 19.187 17.205 19.187zM5.745 2.501c.307 0 .338 0 .566.648 1.387 4.084 4.498 10.128 6.77 10.128 1.708 0 1.708-1.75 1.708-2.409l-.002-5.244c-.093-1.736-.725-2.6-1.14-3.124l4.97.006c.002.024-.029 5.8.014 7.2 0 1.988 1.578 3.127 4.041.634 2.6-2.934 4.398-7.32 4.47-7.499.106-.255.198-.341.533-.341h3.5c-.001.004-.001.009-.003.013-.318 1.487-3.465 6.227-4.517 7.7-.017.022-.033.046-.049.07-.463.757-.84 1.593.064 2.768h.002c.082.1.296.332.607.655.97 1 4.293 4.42 4.587 5.78-.195.031-.407.008-3.701.015-.701 0-1.25-1.048-3.342-3.159-1.881-1.83-3.103-2.578-4.215-2.578-2.159 0-2.002 1.752-1.982 3.872.007 2.297-.007 1.57.009 1.715-.126.05-.488.149-1.43.149C8.217 19.5 2.363 5.233 2.138 2.506c.078-.007 1.15-.003 3.607-.005z"/>
</svg>
