<svg xmlns="http://www.w3.org/2000/svg" width="75" height="75" fill="none" viewBox="0 0 75 75">
    <path fill="#000" d="M37.5 63.269c-6.602 0-13.204-2.513-18.23-7.539-4.064-4.064-6.601-9.218-7.337-14.904-.712-5.506.39-11.186 3.106-15.995.398-.704 1.292-.953 1.996-.555.705.398.953 1.291.555 1.995-5.022 8.894-3.48 20.156 3.752 27.387 4.454 4.455 10.307 6.682 16.158 6.683 5.852 0 11.703-2.227 16.159-6.683 8.91-8.91 8.91-23.407 0-32.316-7.232-7.232-18.494-8.774-27.387-3.752-.705.398-1.599.15-1.996-.555-.398-.704-.15-1.598.555-1.996 4.809-2.716 10.49-3.819 15.995-3.106 5.687.736 10.84 3.273 14.904 7.337 10.052 10.052 10.052 26.408 0 36.46-5.026 5.026-11.628 7.539-18.23 7.539z"/>
    <path fill="#000" d="M37.5 50.139c-2.1 0-4.201-.8-5.8-2.399-.572-.572-.572-1.5 0-2.072.572-.572 1.5-.572 2.071 0 2.056 2.056 5.402 2.056 7.458 0 .572-.572 1.5-.572 2.072 0 .572.572.572 1.5 0 2.072-1.6 1.6-3.7 2.399-5.801 2.399zM29.905 35.688c-.375 0-.75-.143-1.036-.43-.891-.89-2.342-.89-3.233 0-.572.573-1.5.573-2.072 0-.572-.571-.572-1.499 0-2.07 2.034-2.035 5.343-2.035 7.377 0 .572.571.572 1.499 0 2.07-.286.287-.661.43-1.036.43zM50.4 35.688c-.375 0-.75-.143-1.036-.43-.891-.89-2.342-.89-3.233 0-.572.573-1.5.573-2.072 0-.572-.571-.572-1.499 0-2.07 2.034-2.035 5.343-2.035 7.377 0 .572.571.572 1.499 0 2.07-.286.287-.66.43-1.036.43zM37.5 8.789c-.809 0-1.465-.656-1.465-1.465v-5.86C36.035.657 36.691 0 37.5 0s1.465.656 1.465 1.465v5.86c0 .808-.656 1.464-1.465 1.464zM59.503 16.962c-.375 0-.75-.143-1.036-.43-.572-.571-.572-1.499 0-2.071l7.655-7.654c.572-.572 1.5-.572 2.071 0 .572.572.572 1.5 0 2.071l-7.654 7.655c-.286.286-.661.429-1.036.429zM15.497 16.962c-.375 0-.75-.143-1.036-.43L6.807 8.879c-.572-.572-.572-1.5 0-2.071.572-.572 1.5-.572 2.072 0l7.654 7.654c.572.572.572 1.5 0 2.072-.286.286-.661.429-1.036.429zM67.157 68.622c-.374 0-.75-.143-1.035-.429l-7.655-7.654c-.572-.572-.572-1.5 0-2.072.572-.572 1.5-.572 2.072 0l7.654 7.654c.572.573.572 1.5 0 2.072-.286.286-.66.43-1.036.43zM7.843 68.622c-.375 0-.75-.143-1.036-.429-.572-.572-.572-1.5 0-2.072l7.654-7.654c.572-.572 1.5-.572 2.072 0 .572.572.572 1.5 0 2.072l-7.655 7.654c-.286.286-.66.43-1.035.43zM37.5 75c-.809 0-1.465-.656-1.465-1.465v-5.86c0-.808.656-1.464 1.465-1.464s1.465.656 1.465 1.465v5.86c0 .808-.656 1.464-1.465 1.464zM73.535 38.965h-5.86c-.808 0-1.464-.656-1.464-1.465 0-.81.656-1.465 1.465-1.465h5.86c.808 0 1.464.656 1.464 1.465s-.656 1.465-1.465 1.465zM7.324 38.965h-5.86C.657 38.965 0 38.309 0 37.5c0-.81.656-1.465 1.465-1.465h5.86c.808 0 1.464.656 1.464 1.465s-.656 1.465-1.465 1.465zM20.306 21.77c-.386 0-.764-.156-1.036-.429-.272-.272-.43-.65-.43-1.035 0-.386.158-.764.43-1.036.273-.273.65-.43 1.036-.43.385 0 .763.157 1.035.43.273.272.43.65.43 1.036 0 .385-.157.763-.43 1.035-.272.273-.65.43-1.035.43z"/>
</svg>
