<svg xmlns="http://www.w3.org/2000/svg" width="15" height="10" fill="none" viewBox="0 0 15 10">
    <g fill="#000" opacity=".7">
        <path d="M7.5 5.904c.077 0 .153-.027.207-.076.055-.048.086-.115.086-.183 0-.068-.031-.135-.086-.183-.054-.049-.13-.076-.207-.076-.077 0-.153.027-.207.076-.055.048-.086.115-.086.183 0 .068.031.135.086.183.054.049.13.076.207.076zM7.5 4.854c.077 0 .153-.028.207-.076.055-.048.086-.115.086-.183 0-.068-.031-.135-.086-.184-.054-.048-.13-.076-.207-.076-.077 0-.153.028-.207.076-.055.049-.086.116-.086.184 0 .068.031.135.086.183.054.048.13.076.207.076zM7.5 3.805c.077 0 .153-.028.207-.076.055-.048.086-.115.086-.184 0-.068-.031-.135-.086-.183-.054-.048-.13-.076-.207-.076-.077 0-.153.028-.207.076-.055.048-.086.115-.086.183 0 .069.031.136.086.184.054.048.13.076.207.076z"/>
        <path d="M14.707 2.91c-.765 0-1.5.226-2.097.631V1.653c0-.143-.131-.26-.293-.26-1.069 0-2.002.52-2.497 1.289C9.475 1.622 8.722.684 7.665.045c-.1-.06-.23-.06-.33 0-1.057.64-1.81 1.576-2.155 2.637-.495-.769-1.428-1.288-2.497-1.288-.162 0-.293.116-.293.259V3.54c-.596-.405-1.332-.63-2.097-.63-.162 0-.293.115-.293.258v.645c0 2.098 1.747 3.842 4.021 4.152-.347.3-.564.719-.564 1.181v.594c0 .093.056.178.147.225.045.022.096.034.146.034.05 0 .102-.012.148-.035l.541-.28c.49-.252 1.047-.385 1.613-.385.466 0 .903-.16 1.233-.453.08-.072.152-.15.215-.232.063.083.134.16.215.232.33.292.767.453 1.233.453.566 0 1.124.133 1.613.385l.541.28c.046.023.097.035.148.035.05 0 .1-.011.146-.034.09-.047.147-.132.147-.225v-.594c0-.463-.217-.881-.565-1.181.533-.073 1.05-.225 1.523-.451.143-.068.196-.225.12-.351-.078-.126-.255-.173-.398-.106-.55.263-1.17.412-1.798.435 1.274-.655 2.143-1.863 2.183-3.25.474-.454 1.116-.738 1.806-.801v.372c0 .597-.165 1.188-.476 1.712-.075.127-.02.284.123.35.043.02.09.03.136.03.105 0 .207-.05.26-.138.355-.598.543-1.274.543-1.954V3.17c0-.143-.131-.259-.293-.259zM7.5.578c1.222.806 1.946 2.075 1.946 3.43 0 1.354-.724 2.623-1.946 3.43-1.222-.807-1.946-2.076-1.946-3.43 0-1.355.724-2.624 1.946-3.43zm-4.524 1.35c1.122.128 1.992.979 1.992 2.006h.002l-.002.074c0 1.33.624 2.588 1.701 3.488-2.045-.047-3.693-1.533-3.693-3.354V1.929zM.586 3.815v-.372c.69.063 1.332.347 1.806.801.04 1.387.909 2.595 2.183 3.25-2.215-.08-3.99-1.7-3.99-3.679zm5.466 4.968c-.67 0-1.33.157-1.908.455l-.101.053v-.143c0-.624.574-1.132 1.28-1.132H7.17c-.051.175-.154.335-.301.466-.219.194-.51.3-.818.3zm4.905.508l-.101-.053c-.579-.298-1.238-.455-1.908-.455-.309 0-.6-.107-.818-.3-.147-.132-.25-.292-.3-.467h1.848c.705 0 1.279.508 1.279 1.132v.143zm1.067-5.148c0 1.82-1.648 3.307-3.693 3.354 1.077-.9 1.7-2.157 1.7-3.488v-.074c0-1.027.87-1.878 1.993-2.005v2.213z"/>
        <path d="M13.418 6.33c-.077 0-.153.027-.207.075-.055.048-.086.115-.086.183 0 .069.031.136.086.184.054.048.13.076.207.076.077 0 .152-.028.207-.076.055-.048.086-.115.086-.184 0-.068-.031-.135-.086-.183-.055-.048-.13-.076-.207-.076z"/>
    </g>
</svg>
